<svg xmlns="http://www.w3.org/2000/svg" viewBox="0 0 200 200">
  <!-- Classic clock face: bezel, hour/minute ticks, Arabic numerals at 12/3/6/9 -->

  <!-- Outer bezel -->
  <circle cx="100" cy="100" r="98" fill="none" stroke="#c0c0c0" stroke-width="3"/>
  <circle cx="100" cy="100" r="95" fill="#1a1a2e"/>

  <!-- Minute ticks -->
  <g stroke="#888" stroke-width="1">
    <line x1="100" y1="8" x2="100" y2="16" transform="rotate(6,100,100)"/>
    <line x1="100" y1="8" x2="100" y2="16" transform="rotate(12,100,100)"/>
    <line x1="100" y1="8" x2="100" y2="16" transform="rotate(18,100,100)"/>
    <line x1="100" y1="8" x2="100" y2="16" transform="rotate(24,100,100)"/>
    <line x1="100" y1="8" x2="100" y2="16" transform="rotate(36,100,100)"/>
    <line x1="100" y1="8" x2="100" y2="16" transform="rotate(42,100,100)"/>
    <line x1="100" y1="8" x2="100" y2="16" transform="rotate(48,100,100)"/>
    <line x1="100" y1="8" x2="100" y2="16" transform="rotate(54,100,100)"/>
    <line x1="100" y1="8" x2="100" y2="16" transform="rotate(66,100,100)"/>
    <line x1="100" y1="8" x2="100" y2="16" transform="rotate(72,100,100)"/>
    <line x1="100" y1="8" x2="100" y2="16" transform="rotate(78,100,100)"/>
    <line x1="100" y1="8" x2="100" y2="16" transform="rotate(84,100,100)"/>
    <line x1="100" y1="8" x2="100" y2="16" transform="rotate(96,100,100)"/>
    <line x1="100" y1="8" x2="100" y2="16" transform="rotate(102,100,100)"/>
    <line x1="100" y1="8" x2="100" y2="16" transform="rotate(108,100,100)"/>
    <line x1="100" y1="8" x2="100" y2="16" transform="rotate(114,100,100)"/>
    <line x1="100" y1="8" x2="100" y2="16" transform="rotate(126,100,100)"/>
    <line x1="100" y1="8" x2="100" y2="16" transform="rotate(132,100,100)"/>
    <line x1="100" y1="8" x2="100" y2="16" transform="rotate(138,100,100)"/>
    <line x1="100" y1="8" x2="100" y2="16" transform="rotate(144,100,100)"/>
    <line x1="100" y1="8" x2="100" y2="16" transform="rotate(156,100,100)"/>
    <line x1="100" y1="8" x2="100" y2="16" transform="rotate(162,100,100)"/>
    <line x1="100" y1="8" x2="100" y2="16" transform="rotate(168,100,100)"/>
    <line x1="100" y1="8" x2="100" y2="16" transform="rotate(174,100,100)"/>
    <line x1="100" y1="8" x2="100" y2="16" transform="rotate(186,100,100)"/>
    <line x1="100" y1="8" x2="100" y2="16" transform="rotate(192,100,100)"/>
    <line x1="100" y1="8" x2="100" y2="16" transform="rotate(198,100,100)"/>
    <line x1="100" y1="8" x2="100" y2="16" transform="rotate(204,100,100)"/>
    <line x1="100" y1="8" x2="100" y2="16" transform="rotate(216,100,100)"/>
    <line x1="100" y1="8" x2="100" y2="16" transform="rotate(222,100,100)"/>
    <line x1="100" y1="8" x2="100" y2="16" transform="rotate(228,100,100)"/>
    <line x1="100" y1="8" x2="100" y2="16" transform="rotate(234,100,100)"/>
    <line x1="100" y1="8" x2="100" y2="16" transform="rotate(246,100,100)"/>
    <line x1="100" y1="8" x2="100" y2="16" transform="rotate(252,100,100)"/>
    <line x1="100" y1="8" x2="100" y2="16" transform="rotate(258,100,100)"/>
    <line x1="100" y1="8" x2="100" y2="16" transform="rotate(264,100,100)"/>
    <line x1="100" y1="8" x2="100" y2="16" transform="rotate(276,100,100)"/>
    <line x1="100" y1="8" x2="100" y2="16" transform="rotate(282,100,100)"/>
    <line x1="100" y1="8" x2="100" y2="16" transform="rotate(288,100,100)"/>
    <line x1="100" y1="8" x2="100" y2="16" transform="rotate(294,100,100)"/>
    <line x1="100" y1="8" x2="100" y2="16" transform="rotate(306,100,100)"/>
    <line x1="100" y1="8" x2="100" y2="16" transform="rotate(312,100,100)"/>
    <line x1="100" y1="8" x2="100" y2="16" transform="rotate(318,100,100)"/>
    <line x1="100" y1="8" x2="100" y2="16" transform="rotate(324,100,100)"/>
    <line x1="100" y1="8" x2="100" y2="16" transform="rotate(336,100,100)"/>
    <line x1="100" y1="8" x2="100" y2="16" transform="rotate(342,100,100)"/>
    <line x1="100" y1="8" x2="100" y2="16" transform="rotate(348,100,100)"/>
    <line x1="100" y1="8" x2="100" y2="16" transform="rotate(354,100,100)"/>
  </g>

  <!-- Hour ticks (thicker) -->
  <g stroke="#ccc" stroke-width="2.5">
    <line x1="100" y1="8" x2="100" y2="22" transform="rotate(0,100,100)"/>
    <line x1="100" y1="8" x2="100" y2="22" transform="rotate(30,100,100)"/>
    <line x1="100" y1="8" x2="100" y2="22" transform="rotate(60,100,100)"/>
    <line x1="100" y1="8" x2="100" y2="22" transform="rotate(90,100,100)"/>
    <line x1="100" y1="8" x2="100" y2="22" transform="rotate(120,100,100)"/>
    <line x1="100" y1="8" x2="100" y2="22" transform="rotate(150,100,100)"/>
    <line x1="100" y1="8" x2="100" y2="22" transform="rotate(180,100,100)"/>
    <line x1="100" y1="8" x2="100" y2="22" transform="rotate(210,100,100)"/>
    <line x1="100" y1="8" x2="100" y2="22" transform="rotate(240,100,100)"/>
    <line x1="100" y1="8" x2="100" y2="22" transform="rotate(270,100,100)"/>
    <line x1="100" y1="8" x2="100" y2="22" transform="rotate(300,100,100)"/>
    <line x1="100" y1="8" x2="100" y2="22" transform="rotate(330,100,100)"/>
  </g>

  <!-- Arabic numerals at 12, 3, 6, 9 -->
  <g fill="#e0e0e0" font-family="sans-serif" font-size="22" text-anchor="middle">
    <text x="100" y="40" dominant-baseline="central">12</text>
    <text x="166" y="104" dominant-baseline="central">3</text>
    <text x="100" y="168" dominant-baseline="central">6</text>
    <text x="34" y="104" dominant-baseline="central">9</text>
  </g>

  <!-- Center dot -->
  <circle cx="100" cy="100" r="3" fill="#c0c0c0"/>
</svg>
