<svg xmlns="http://www.w3.org/2000/svg" viewBox="0 0 200 200">
  <!-- Modern clock face: bold bar indices at hours, thin minute lines, accent ring -->

  <!-- Face background -->
  <circle cx="100" cy="100" r="97" fill="#1a1a2e"/>

  <!-- Accent ring -->
  <circle cx="100" cy="100" r="97" fill="none" stroke="#ef4444" stroke-width="2"/>

  <!-- Minute markers (thin lines) -->
  <g stroke="#555" stroke-width="0.8">
    <line x1="100" y1="8" x2="100" y2="14" transform="rotate(6,100,100)"/>
    <line x1="100" y1="8" x2="100" y2="14" transform="rotate(12,100,100)"/>
    <line x1="100" y1="8" x2="100" y2="14" transform="rotate(18,100,100)"/>
    <line x1="100" y1="8" x2="100" y2="14" transform="rotate(24,100,100)"/>
    <line x1="100" y1="8" x2="100" y2="14" transform="rotate(36,100,100)"/>
    <line x1="100" y1="8" x2="100" y2="14" transform="rotate(42,100,100)"/>
    <line x1="100" y1="8" x2="100" y2="14" transform="rotate(48,100,100)"/>
    <line x1="100" y1="8" x2="100" y2="14" transform="rotate(54,100,100)"/>
    <line x1="100" y1="8" x2="100" y2="14" transform="rotate(66,100,100)"/>
    <line x1="100" y1="8" x2="100" y2="14" transform="rotate(72,100,100)"/>
    <line x1="100" y1="8" x2="100" y2="14" transform="rotate(78,100,100)"/>
    <line x1="100" y1="8" x2="100" y2="14" transform="rotate(84,100,100)"/>
    <line x1="100" y1="8" x2="100" y2="14" transform="rotate(96,100,100)"/>
    <line x1="100" y1="8" x2="100" y2="14" transform="rotate(102,100,100)"/>
    <line x1="100" y1="8" x2="100" y2="14" transform="rotate(108,100,100)"/>
    <line x1="100" y1="8" x2="100" y2="14" transform="rotate(114,100,100)"/>
    <line x1="100" y1="8" x2="100" y2="14" transform="rotate(126,100,100)"/>
    <line x1="100" y1="8" x2="100" y2="14" transform="rotate(132,100,100)"/>
    <line x1="100" y1="8" x2="100" y2="14" transform="rotate(138,100,100)"/>
    <line x1="100" y1="8" x2="100" y2="14" transform="rotate(144,100,100)"/>
    <line x1="100" y1="8" x2="100" y2="14" transform="rotate(156,100,100)"/>
    <line x1="100" y1="8" x2="100" y2="14" transform="rotate(162,100,100)"/>
    <line x1="100" y1="8" x2="100" y2="14" transform="rotate(168,100,100)"/>
    <line x1="100" y1="8" x2="100" y2="14" transform="rotate(174,100,100)"/>
    <line x1="100" y1="8" x2="100" y2="14" transform="rotate(186,100,100)"/>
    <line x1="100" y1="8" x2="100" y2="14" transform="rotate(192,100,100)"/>
    <line x1="100" y1="8" x2="100" y2="14" transform="rotate(198,100,100)"/>
    <line x1="100" y1="8" x2="100" y2="14" transform="rotate(204,100,100)"/>
    <line x1="100" y1="8" x2="100" y2="14" transform="rotate(216,100,100)"/>
    <line x1="100" y1="8" x2="100" y2="14" transform="rotate(222,100,100)"/>
    <line x1="100" y1="8" x2="100" y2="14" transform="rotate(228,100,100)"/>
    <line x1="100" y1="8" x2="100" y2="14" transform="rotate(234,100,100)"/>
    <line x1="100" y1="8" x2="100" y2="14" transform="rotate(246,100,100)"/>
    <line x1="100" y1="8" x2="100" y2="14" transform="rotate(252,100,100)"/>
    <line x1="100" y1="8" x2="100" y2="14" transform="rotate(258,100,100)"/>
    <line x1="100" y1="8" x2="100" y2="14" transform="rotate(264,100,100)"/>
    <line x1="100" y1="8" x2="100" y2="14" transform="rotate(276,100,100)"/>
    <line x1="100" y1="8" x2="100" y2="14" transform="rotate(282,100,100)"/>
    <line x1="100" y1="8" x2="100" y2="14" transform="rotate(288,100,100)"/>
    <line x1="100" y1="8" x2="100" y2="14" transform="rotate(294,100,100)"/>
    <line x1="100" y1="8" x2="100" y2="14" transform="rotate(306,100,100)"/>
    <line x1="100" y1="8" x2="100" y2="14" transform="rotate(312,100,100)"/>
    <line x1="100" y1="8" x2="100" y2="14" transform="rotate(318,100,100)"/>
    <line x1="100" y1="8" x2="100" y2="14" transform="rotate(324,100,100)"/>
    <line x1="100" y1="8" x2="100" y2="14" transform="rotate(336,100,100)"/>
    <line x1="100" y1="8" x2="100" y2="14" transform="rotate(342,100,100)"/>
    <line x1="100" y1="8" x2="100" y2="14" transform="rotate(348,100,100)"/>
    <line x1="100" y1="8" x2="100" y2="14" transform="rotate(354,100,100)"/>
  </g>

  <!-- Bold hour bar indices -->
  <g fill="#e0e0e0">
    <rect x="96" y="8" width="8" height="18" rx="1" transform="rotate(0,100,100)"/>
    <rect x="96" y="8" width="8" height="18" rx="1" transform="rotate(30,100,100)"/>
    <rect x="96" y="8" width="8" height="18" rx="1" transform="rotate(60,100,100)"/>
    <rect x="96" y="8" width="8" height="18" rx="1" transform="rotate(90,100,100)"/>
    <rect x="96" y="8" width="8" height="18" rx="1" transform="rotate(120,100,100)"/>
    <rect x="96" y="8" width="8" height="18" rx="1" transform="rotate(150,100,100)"/>
    <rect x="96" y="8" width="8" height="18" rx="1" transform="rotate(180,100,100)"/>
    <rect x="96" y="8" width="8" height="18" rx="1" transform="rotate(210,100,100)"/>
    <rect x="96" y="8" width="8" height="18" rx="1" transform="rotate(240,100,100)"/>
    <rect x="96" y="8" width="8" height="18" rx="1" transform="rotate(270,100,100)"/>
    <rect x="96" y="8" width="8" height="18" rx="1" transform="rotate(300,100,100)"/>
    <rect x="96" y="8" width="8" height="18" rx="1" transform="rotate(330,100,100)"/>
  </g>

  <!-- Center dot -->
  <circle cx="100" cy="100" r="4" fill="#e0e0e0"/>
</svg>
